<svg width="25" height="24" viewBox="0 0 25 24" fill="none" xmlns="http://www.w3.org/2000/svg">
<path fill-rule="evenodd" clip-rule="evenodd" d="M4.39995 5.30005C4.3865 5.30005 4.37279 5.30058 4.35881 5.30166C4.18326 5.31523 3.97523 5.41699 3.80504 5.59636C3.63468 5.77591 3.54995 5.98248 3.54995 6.15005V11.725H5.92495V10.2C5.92495 9.69993 6.16997 9.24167 6.49327 8.91837C6.81657 8.59507 7.27484 8.35005 7.77495 8.35005H11.15C11.6501 8.35005 12.1083 8.59507 12.4316 8.91837C12.4548 8.94157 12.4776 8.96546 12.5 8.99002C12.5223 8.96546 12.5451 8.94157 12.5683 8.91837C12.8916 8.59507 13.3498 8.35005 13.85 8.35005H17.2249C17.7251 8.35005 18.1833 8.59507 18.5066 8.91837C18.8299 9.24167 19.0749 9.69993 19.0749 10.2V11.725H21.4499V6.15005C21.4499 5.97513 21.3574 5.75851 21.1748 5.57613C20.9921 5.39374 20.7762 5.30234 20.6022 5.30314H20.5977C20.0592 5.30067 9.5763 5.30005 4.39995 5.30005ZM22.4499 11.8061C22.7509 11.9039 23.0201 12.0819 23.2316 12.2934C23.5549 12.6167 23.7999 13.0749 23.7999 13.575V20.8251H20.0999V19.475H4.89995V20.8251H1.19995V13.575C1.19995 13.0749 1.44497 12.6167 1.76827 12.2934C1.97976 12.0819 2.24901 11.9039 2.54995 11.8061V6.15005C2.54995 5.66919 2.77667 5.22734 3.07962 4.90806C3.38273 4.5886 3.80986 4.34111 4.28173 4.30463C4.32082 4.30161 4.36025 4.30005 4.39995 4.30005C9.56707 4.30005 20.0343 4.30067 20.6001 4.30314C21.1003 4.30166 21.5583 4.54594 21.8814 4.86849C22.205 5.19158 22.4499 5.64996 22.4499 6.15005V11.8061ZM18.0749 11.725V10.2C18.0749 10.0252 17.9825 9.80843 17.7995 9.62548C17.6166 9.44253 17.3998 9.35005 17.2249 9.35005H13.85C13.6751 9.35005 13.4583 9.44253 13.2754 9.62548C13.0924 9.80843 13 10.0252 13 10.2V11.725H18.0749ZM12 11.725V10.2C12 10.0252 11.9075 9.80843 11.7245 9.62548C11.5416 9.44253 11.3248 9.35005 11.15 9.35005H7.77495C7.60007 9.35005 7.38333 9.44253 7.20038 9.62548C7.01743 9.80843 6.92495 10.0252 6.92495 10.2V11.725H12ZM2.47538 13.0005C2.29243 13.1834 2.19995 13.4002 2.19995 13.575V19.825H3.89995V18.475H21.0999V19.825H22.7999V13.575C22.7999 13.4002 22.7075 13.1834 22.5245 13.0005C22.3416 12.8175 22.1248 12.725 21.9499 12.725H3.04995C2.87507 12.725 2.65833 12.8175 2.47538 13.0005Z" fill="#BDBDBD"/>
</svg>
