<svg width="21" height="22" viewBox="0 0 21 22" fill="none" xmlns="http://www.w3.org/2000/svg">
<g clip-path="url(#clip0_4_33)">
<path fill-rule="evenodd" clip-rule="evenodd" d="M5.4499 6.49299C4.80644 7.19494 4.37007 8.09984 4.37007 8.96013V11.0001C4.37007 11.9013 4.71093 12.8309 5.1884 13.6068C5.67263 14.3937 6.24916 14.9457 6.64367 15.1429V16.0373L1.82007 18.4491V20.1901H15.1001V18.4621L9.78317 16.0453L9.76646 15.1429C10.161 14.9457 10.7375 14.3937 11.2217 13.6068C11.6992 12.8309 12.0401 11.9013 12.0401 11.0001V8.96013C12.0401 8.09984 11.6037 7.19494 10.9602 6.49299C10.3063 5.77961 9.53751 5.38013 8.97007 5.38013H7.44007C6.87263 5.38013 6.10383 5.77961 5.4499 6.49299ZM4.71274 5.81726C5.46131 5.00064 6.47751 4.38013 7.44007 4.38013H8.97007C9.93263 4.38013 10.9488 5.00064 11.6974 5.81726C12.4564 6.64531 13.0401 7.78041 13.0401 8.96013V11.0001C13.0401 12.139 12.6159 13.2493 12.0734 14.1309C11.7498 14.6568 11.3668 15.1289 10.9763 15.4892L16.1001 17.8182V21.1901H0.820068V17.8311L5.45855 15.5119C5.05958 15.1488 4.66721 14.6679 4.33674 14.1309C3.79421 13.2493 3.37007 12.139 3.37007 11.0001V8.96013C3.37007 7.78041 3.9537 6.64531 4.71274 5.81726Z" fill="#BDBDBD"/>
<path fill-rule="evenodd" clip-rule="evenodd" d="M11.5201 2.31982C10.896 2.31982 10.035 2.80323 9.35712 3.6322L8.58301 2.99915C9.35439 2.05588 10.4712 1.31982 11.5201 1.31982H12.5401C13.4843 1.31982 14.6207 1.92222 15.493 2.72742C16.3711 3.53805 17.1201 4.6815 17.1201 5.89982V7.93982C17.1201 9.07869 16.6959 10.189 16.1534 11.0706C15.8298 11.5965 15.4468 12.0686 15.0563 12.4289L20.1801 14.7579V18.1298H17.1301V17.1298H19.1801V15.4018L13.8632 12.985L13.8465 12.0826C14.241 11.8854 14.8175 11.3334 15.3017 10.5465C15.7792 9.77064 16.1201 8.84095 16.1201 7.93982V5.89982C16.1201 5.07815 15.594 4.18159 14.8147 3.46223C14.0295 2.73743 13.1258 2.31982 12.5401 2.31982H11.5201Z" fill="#BDBDBD"/>
</g>
<defs>
<clipPath id="clip0_4_33">
<rect width="20.4" height="20.4" fill="white" transform="translate(0.300049 0.800049)"/>
</clipPath>
</defs>
</svg>
