<svg width="16" height="16" viewBox="0 0 16 16" fill="none" xmlns="http://www.w3.org/2000/svg">
<g clip-path="url(#clip0_23_1681)">
<path d="M1.46155 7.57048C1.39795 10.8157 3.50602 12.5503 4.568 13.0119L4.82509 15.7024H5.16145L7.12026 13.6051C7.74681 13.5524 9.58163 13.3598 11.9085 13.0119C14.817 12.5769 14.9555 8.18376 14.7774 5.09715C14.635 2.62787 12.8054 1.39017 11.9085 1.07999C10.3915 0.908607 6.9778 0.633123 5.45824 0.902211C3.55879 1.23857 1.54105 3.51396 1.46155 7.57048Z" fill="#8E24AA"/>
<path d="M15.4369 9.26153C15.9142 5.24353 15.2076 2.70686 13.9329 1.55953L13.9336 1.55886C11.8762 -0.400472 4.92824 -0.690472 2.4669 1.64686C1.36157 2.79019 0.972236 4.46819 0.929569 6.54553C0.886903 8.62353 0.836236 12.5162 4.46357 13.5722H4.4669L4.46357 15.1849C4.46357 15.1849 4.4389 15.8382 4.85624 15.9695C5.33357 16.1242 5.54957 15.8209 7.03424 14.0475C9.5169 14.2629 11.4236 13.7695 11.6402 13.6975C12.1416 13.5295 14.9782 13.1542 15.4369 9.26153ZM7.2789 12.9129C7.2789 12.9129 5.70757 14.8722 5.2189 15.3809C5.0589 15.5462 4.88357 15.5309 4.88624 15.2029C4.88624 14.9875 4.89824 12.5255 4.89824 12.5255C1.8229 11.6442 2.00424 8.32953 2.03757 6.59553C2.0709 4.86086 2.38824 3.44019 3.32424 2.48353C5.48357 0.458861 11.5749 0.911528 13.1269 2.37019C15.0242 4.0522 14.3489 8.8042 14.3529 8.9662C13.9629 12.2155 11.6642 12.4215 11.2416 12.5622C11.0609 12.6222 9.38424 13.0535 7.2789 12.9129Z" fill="white"/>
<path d="M8.14782 2.86426C7.89116 2.86426 7.89116 3.26426 8.14782 3.26759C10.1392 3.28292 11.7792 4.67092 11.7972 7.21692C11.7972 7.48559 12.1905 7.48226 12.1872 7.21359H12.1865C12.1652 4.47026 10.3745 2.87959 8.14782 2.86426Z" fill="white"/>
<path d="M10.7673 6.79487C10.7613 7.0602 11.154 7.07287 11.1573 6.8042C11.19 5.29154 10.2573 4.04554 8.50467 3.9142C8.248 3.89554 8.22133 4.29887 8.47733 4.31754C9.99734 4.43287 10.798 5.4702 10.7673 6.79487Z" fill="white"/>
<path d="M10.3479 8.51493C10.0186 8.32426 9.68325 8.44293 9.54458 8.63026L9.25458 9.0056C9.10725 9.19626 8.83191 9.17093 8.83191 9.17093C6.82258 8.6396 6.28525 6.53693 6.28525 6.53693C6.28525 6.53693 6.26059 6.25226 6.44459 6.0996L6.80725 5.7996C6.98858 5.6556 7.10325 5.30893 6.91858 4.96826C6.42525 4.07693 6.09392 3.7696 5.92525 3.5336C5.74792 3.3116 5.48125 3.2616 5.20392 3.4116H5.19792C4.62126 3.74893 3.98992 4.38026 4.19192 5.03026C4.53659 5.7156 5.16992 7.90026 7.18858 9.55093C8.13725 10.3316 9.63858 11.1316 10.2759 11.3163L10.2819 11.3256C10.9099 11.5349 11.5206 10.8789 11.8466 10.2849V10.2803C11.9912 9.99293 11.9432 9.72093 11.7319 9.54293C11.3572 9.1776 10.7919 8.77426 10.3479 8.51493Z" fill="white"/>
<path d="M8.77928 5.40278C9.41995 5.44012 9.73062 5.77479 9.76395 6.46212C9.77595 6.73079 10.166 6.71212 10.154 6.44346C10.1113 5.54612 9.64329 5.04612 8.80061 4.99945C8.54394 4.98412 8.51994 5.38745 8.77928 5.40278Z" fill="white"/>
</g>
<defs>
<clipPath id="clip0_23_1681">
<rect width="16" height="16" fill="white"/>
</clipPath>
</defs>
</svg>
