<svg width="110" height="14" viewBox="0 0 110 14" fill="none" xmlns="http://www.w3.org/2000/svg">
<path d="M9.11662 5.36441L6.4776 13.8028H3.83858L0 0H2.81895L5.81784 11.5124L8.93669 1.80823H10.5561L13.6749 11.5124L16.6738 0H18.2932L14.5146 13.8028H11.8756L9.11662 5.36441Z" fill="white"/>
<path d="M27.4687 13.8031H24.8297V0.0605469H27.4687V13.8031Z" fill="white"/>
<path d="M36.5856 13.8031V0.0605469H39.2247V12.3565H44.1428V13.8634H36.5856V13.8031Z" fill="white"/>
<path d="M52.3001 13.8031V0.0605469H54.9391V12.3565H59.8573V13.8634H52.3001V13.8031Z" fill="white"/>
<path d="M89.6677 13.8031L80.6711 4.21947V13.8031H79.1716V0.0605469H80.3112L89.3678 9.58389V0.0605469H90.8673V13.8634H89.6677V13.8031Z" fill="white"/>
<path d="M109.88 6.87096H104.962V8.13672H107.481V11.8737C107.181 12.0545 106.941 12.1751 106.281 12.2956C104.542 12.5367 102.803 12.0546 101.723 10.5477C100.463 8.73946 100.523 5.24355 101.483 3.67642C102.443 2.22984 103.942 1.386 105.621 1.44627C107.001 1.50654 107.901 1.86819 109.1 2.83258L109.94 1.74764C109.94 1.74764 109.04 1.08462 108.68 0.903802C107.181 0.120236 105.621 -0.0605868 104.002 0.18051C98.7241 0.964076 96.9847 6.93123 99.3838 10.8491C100.463 12.6573 102.083 13.6217 104.062 13.9231C106.041 14.2244 108.261 13.6217 110 12.4765V6.87096H109.88Z" fill="white"/>
<path d="M68.6736 0.0605469H66.0346V13.8634H68.6736V0.0605469Z" fill="white"/>
</svg>
